<svg width="1691" height="1088" viewBox="0 0 1691 1088" fill="none" xmlns="http://www.w3.org/2000/svg">
<path d="M1299.65 64C1299.65 99.3462 1328.3 128 1363.65 128H1613C1656.08 128 1691 162.922 1691 206V1010C1691 1053.08 1656.08 1088 1613 1088H492.792C449.714 1088 414.792 1053.08 414.792 1010V534.147C414.792 503.072 396.346 474.961 367.837 462.592L46.9546 323.372C18.4464 311.003 0 282.892 0 251.817V215.397C0 175.966 31.9656 144 71.3972 144C107.156 144 137.4 117.546 142.159 82.1051L144.104 67.619C149.304 28.9005 182.344 0 221.411 0H1235.65C1270.99 0 1299.65 28.6538 1299.65 64Z" fill="black"/>
</svg>
